<svg width="22" height="22" viewBox="0 0 22 22" fill="none" xmlns="http://www.w3.org/2000/svg">
<path d="M19.1031 4.22586C18.6349 3.75745 18.079 3.38587 17.4672 3.13235C16.8554 2.87884 16.1996 2.74835 15.5373 2.74835C14.875 2.74835 14.2192 2.87884 13.6074 3.13235C12.9955 3.38587 12.4396 3.75745 11.9714 4.22586L10.9998 5.19753L10.0281 4.22586C9.0824 3.28014 7.79973 2.74884 6.46228 2.74884C5.12484 2.74884 3.84217 3.28014 2.89645 4.22586C1.95073 5.17158 1.41943 6.45424 1.41943 7.79169C1.41943 9.12914 1.95073 10.4118 2.89645 11.3575L10.9998 19.4609L19.1031 11.3575C19.5715 10.8893 19.9431 10.3334 20.1966 9.7216C20.4501 9.10976 20.5806 8.45397 20.5806 7.79169C20.5806 7.12941 20.4501 6.47362 20.1966 5.86178C19.9431 5.24995 19.5715 4.69405 19.1031 4.22586Z" fill="#FF0004"/>
</svg>
