<svg width="10" height="10" viewBox="0 0 10 10" fill="none" xmlns="http://www.w3.org/2000/svg">
<g clip-path="url(#clip0_107_363)">
<path d="M5.00016 3.33334C4.07969 3.33334 3.3335 4.07954 3.3335 5.00001C3.3335 5.92048 4.07969 6.66668 5.00016 6.66668C5.92064 6.66668 6.66683 5.92048 6.66683 5.00001C6.66683 4.07954 5.92064 3.33334 5.00016 3.33334ZM5.00016 3.33334H8.821M1.646 2.52501L3.5585 5.83334M4.5335 9.14168L6.44183 5.83334M9.16683 5.00001C9.16683 7.3012 7.30135 9.16668 5.00016 9.16668C2.69898 9.16668 0.833496 7.3012 0.833496 5.00001C0.833496 2.69882 2.69898 0.833344 5.00016 0.833344C7.30135 0.833344 9.16683 2.69882 9.16683 5.00001Z" stroke="#615D5D" stroke-linecap="round" stroke-linejoin="round"/>
</g>
<defs>
<clipPath id="clip0_107_363">
<rect width="10" height="10" fill="white"/>
</clipPath>
</defs>
</svg>
