<svg width="15" height="15" viewBox="0 0 15 15" fill="none" xmlns="http://www.w3.org/2000/svg">
<path d="M9.375 3.75C9.375 4.78553 10.2145 5.625 11.25 5.625C12.2855 5.625 13.125 4.78553 13.125 3.75C13.125 2.71447 12.2855 1.875 11.25 1.875C10.2145 1.875 9.375 2.71447 9.375 3.75ZM9.375 3.75H5C4.66848 3.75 4.35054 3.8817 4.11612 4.11612C3.8817 4.35054 3.75 4.66848 3.75 5V6.875M5.625 11.25C5.625 10.2145 4.78553 9.375 3.75 9.375C2.71447 9.375 1.875 10.2145 1.875 11.25C1.875 12.2855 2.71447 13.125 3.75 13.125C4.78553 13.125 5.625 12.2855 5.625 11.25ZM5.625 11.25H13.125" stroke="#1E1E1E" stroke-width="1.5" stroke-linecap="round" stroke-linejoin="round"/>
</svg>
