<svg width="12" height="11" viewBox="0 0 12 11" fill="none" xmlns="http://www.w3.org/2000/svg">
<path d="M4.54965 9.68045H7.45035V6.1519C7.45035 5.92897 7.29952 5.78354 7.06829 5.78354H4.93673C4.70044 5.78354 4.54965 5.92897 4.54965 6.1519V9.68045ZM2.58399 10.1797H9.38582C10.0997 10.1797 10.5169 9.78707 10.5169 9.10852V3.7527L9.70756 3.21954V8.90979C9.70756 9.22483 9.53164 9.39932 9.21491 9.39932H2.75492C2.43318 9.39932 2.25722 9.22483 2.25722 8.90979V3.22439L1.44784 3.7527V9.10852C1.44784 9.78707 1.8651 10.1797 2.58399 10.1797ZM0 4.78507C0 4.98381 0.160871 5.17282 0.43234 5.17282C0.573105 5.17282 0.68873 5.10015 0.7943 5.01772L5.82654 0.946355C5.93713 0.849416 6.07286 0.849416 6.1835 0.946355L11.2157 5.01772C11.3163 5.10015 11.4319 5.17282 11.5727 5.17282C11.8089 5.17282 12 5.03228 12 4.79963C12 4.65421 11.9497 4.5573 11.8441 4.47003L6.61082 0.229015C6.2388 -0.0763384 5.77626 -0.0763384 5.39922 0.229015L0.160871 4.47003C0.0502724 4.5573 0 4.6736 0 4.78507ZM9.25511 2.59914L10.5169 3.62668V1.38742C10.5169 1.17416 10.3762 1.03844 10.155 1.03844H9.61709C9.40092 1.03844 9.25511 1.17416 9.25511 1.38742V2.59914Z" fill="#FF0004"/>
</svg>
