<svg width="9" height="12" viewBox="0 0 9 12" fill="none" xmlns="http://www.w3.org/2000/svg">
<path d="M7.21563 2.44444C7.21563 2.49724 7.23387 2.54611 7.26487 2.58597C7.288 2.63137 7.32651 2.67058 7.37801 2.69623C8.04912 3.03046 8.47358 3.72057 8.47358 4.54343C8.47358 5.69928 7.51717 6.6128 6.36789 6.6128C5.21861 6.6128 4.2622 5.69928 4.2622 4.54343C4.2622 4.03363 4.44947 3.56877 4.75816 3.20946C4.82346 3.13345 4.83156 3.03251 4.78799 2.9509C4.78525 2.91535 4.77395 2.8798 4.75335 2.84685C4.05669 1.73302 2.49997 1.27797 1.27273 1.93202C0.0556619 2.58064 -0.361336 4.01718 0.341337 5.14063C0.667185 5.6616 1.17703 6.02392 1.75087 6.19776C1.75082 6.19764 1.75092 6.19788 1.75087 6.19776L4.08672 11.5437C4.36099 12.1714 5.33329 12.1452 5.56736 11.5038L6.88055 7.90518C6.92695 7.77802 6.85289 7.64021 6.71513 7.59737C6.57737 7.55453 6.42807 7.6229 6.38167 7.75006L5.06848 11.3487C4.99046 11.5625 4.66636 11.5712 4.57493 11.362L2.23923 6.01636C2.23169 5.9991 2.22224 5.98307 2.21121 5.96841C2.19805 5.87372 2.12473 5.79111 2.01869 5.76467C1.52101 5.64057 1.07518 5.34206 0.797232 4.89767C0.239927 4.00664 0.570657 2.86728 1.53594 2.35284C2.46665 1.85683 3.67082 2.17208 4.25298 3.0219C3.92744 3.44778 3.73578 3.9747 3.73578 4.54343C3.73578 5.94171 4.90055 7.09873 6.36789 7.09873C7.83523 7.09873 9 5.94171 9 4.54343C9 3.61153 8.53715 2.77729 7.74205 2.32907V2.30749L7.742 2.303C7.71859 1.1334 6.75348 0.136909 5.46096 0.0127849C4.73405 -0.0570228 4.04645 0.163202 3.53415 0.571598C3.35741 0.712491 3.20135 0.875894 3.07153 1.05772C2.99154 1.16976 3.02509 1.32045 3.14646 1.39429C3.26784 1.46813 3.43109 1.43716 3.51108 1.32512C3.61398 1.181 3.73781 1.0513 3.87822 0.939366C4.28522 0.61492 4.82993 0.440736 5.40649 0.496106C6.43046 0.59444 7.19591 1.38355 7.21563 2.3098V2.44444Z" fill="#615D5D"/>
</svg>
