<svg width="22" height="22" viewBox="0 0 22 22" fill="none" xmlns="http://www.w3.org/2000/svg">
<path d="M17.8421 16.7895H6.39348L3.59649 1.65132C3.56377 1.47003 3.4677 1.3057 3.3249 1.18676C3.18211 1.06783 3.00158 1.00176 2.81454 1H1" stroke="#5B5B5B" stroke-opacity="0.87" stroke-width="2" stroke-linecap="round" stroke-linejoin="round"/>
<path d="M7.31571 21.0001C8.47842 21.0001 9.42098 20.0575 9.42098 18.8948C9.42098 17.7321 8.47842 16.7896 7.31571 16.7896C6.15301 16.7896 5.21045 17.7321 5.21045 18.8948C5.21045 20.0575 6.15301 21.0001 7.31571 21.0001Z" stroke="#5B5B5B" stroke-opacity="0.87" stroke-width="2" stroke-linecap="round" stroke-linejoin="round"/>
<path d="M17.8421 21.0001C19.0048 21.0001 19.9473 20.0575 19.9473 18.8948C19.9473 17.7321 19.0048 16.7896 17.8421 16.7896C16.6794 16.7896 15.7368 17.7321 15.7368 18.8948C15.7368 20.0575 16.6794 21.0001 17.8421 21.0001Z" stroke="#5B5B5B" stroke-opacity="0.87" stroke-width="2" stroke-linecap="round" stroke-linejoin="round"/>
<path d="M5.61184 12.5789H18.2033C18.5782 12.5799 18.9415 12.4595 19.2294 12.2388C19.5172 12.0182 19.7112 11.7113 19.7773 11.3723L21.0003 5.21045H4.1582" stroke="#5B5B5B" stroke-opacity="0.87" stroke-width="2" stroke-linecap="round" stroke-linejoin="round"/>
</svg>
