<svg width="22" height="22" viewBox="0 0 22 22" fill="none" xmlns="http://www.w3.org/2000/svg">
<path d="M19.1034 4.22586C18.6352 3.75745 18.0793 3.38587 17.4674 3.13235C16.8556 2.87884 16.1998 2.74835 15.5375 2.74835C14.8752 2.74835 14.2195 2.87884 13.6076 3.13235C12.9958 3.38587 12.4399 3.75745 11.9717 4.22586L11 5.19753L10.0284 4.22586C9.08264 3.28014 7.79997 2.74884 6.46253 2.74884C5.12508 2.74884 3.84241 3.28014 2.89669 4.22586C1.95098 5.17158 1.41968 6.45424 1.41968 7.79169C1.41968 9.12914 1.95098 10.4118 2.89669 11.3575L11 19.4609L19.1034 11.3575C19.5718 10.8893 19.9433 10.3334 20.1969 9.7216C20.4504 9.10976 20.5809 8.45397 20.5809 7.79169C20.5809 7.12941 20.4504 6.47362 20.1969 5.86178C19.9433 5.24995 19.5718 4.69405 19.1034 4.22586Z" stroke="#1E1E1E" stroke-opacity="0.71" stroke-width="2" stroke-linecap="round" stroke-linejoin="round"/>
</svg>
