<svg width="10" height="10" viewBox="0 0 10 10" fill="none" xmlns="http://www.w3.org/2000/svg">
<path d="M9.16683 5.00001H6.66683L5.8335 6.25H4.16683L3.3335 5.00001H0.833496M9.16683 5.00001V7.5C9.16683 7.72102 9.07903 7.93298 8.92275 8.08926C8.76647 8.24554 8.55451 8.33334 8.3335 8.33334H1.66683C1.44582 8.33334 1.23385 8.24554 1.07757 8.08926C0.921293 7.93298 0.833496 7.72102 0.833496 7.5V5.00001M9.16683 5.00001L7.72933 2.12917C7.66034 1.99033 7.55399 1.87349 7.42223 1.79179C7.29047 1.71008 7.13853 1.66675 6.9835 1.66667H3.01683C2.86179 1.66675 2.70986 1.71008 2.5781 1.79179C2.44634 1.87349 2.33999 1.99033 2.271 2.12917L0.833496 5.00001" stroke="#615D5D" stroke-linecap="round" stroke-linejoin="round"/>
</svg>
