<svg width="19" height="18" viewBox="0 0 19 18" fill="none" xmlns="http://www.w3.org/2000/svg">
<g clip-path="url(#clip0_75_577)">
<path d="M13.2526 15.0744H2.71392C1.71239 15.0744 0.896912 14.2607 0.896912 13.2614V2.38333C0.896912 1.38399 1.71239 0.570312 2.71392 0.570312H8.52836C8.68389 0.570312 8.82198 0.66894 8.87213 0.815432L13.5964 14.5943C13.6342 14.7046 13.616 14.8271 13.5484 14.9221C13.4801 15.0179 13.3703 15.0744 13.2526 15.0744ZM2.71392 1.29552C2.11285 1.29552 1.62372 1.78358 1.62372 2.38333V13.2614C1.62372 13.8612 2.11285 14.3492 2.71392 14.3492H12.7438L8.26889 1.29552H2.71392Z" fill="black"/>
<path d="M16.5232 17.9753H10.7088C10.5576 17.9753 10.4217 17.8818 10.3686 17.7403L9.27841 14.8395C9.20791 14.6517 9.30313 14.4428 9.49064 14.3725C9.67888 14.3029 9.8882 14.3971 9.9587 14.5842L10.961 17.2501H16.5232C17.1243 17.2501 17.6134 16.762 17.6134 16.1623V5.28421C17.6134 4.68446 17.1243 4.1964 16.5232 4.1964H9.61856C9.41796 4.1964 9.25516 4.03395 9.25516 3.83379C9.25516 3.63364 9.41796 3.47119 9.61856 3.47119H16.5232C17.5247 3.47119 18.3402 4.28487 18.3402 5.28421V16.1623C18.3402 17.1616 17.5247 17.9753 16.5232 17.9753Z" fill="black"/>
<path d="M10.7088 17.975C10.6237 17.975 10.5387 17.9453 10.4696 17.8851C10.3185 17.7531 10.3032 17.524 10.4355 17.3731L12.9793 14.4723C13.1116 14.3207 13.3412 14.3062 13.4924 14.4382C13.6436 14.5702 13.6589 14.7994 13.5266 14.9502L10.9828 17.851C10.9101 17.933 10.8098 17.975 10.7088 17.975Z" fill="black"/>
<path d="M7.80155 10.7232C7.65182 10.7232 7.51228 10.6311 7.45922 10.4824L5.98454 6.36249L4.50985 10.4824C4.44226 10.6709 4.23366 10.7696 4.04542 10.7021C3.85645 10.6347 3.75761 10.4273 3.8252 10.2387L5.64221 5.16227C5.74542 4.87364 6.22365 4.87364 6.32613 5.16227L8.14314 10.2387C8.21074 10.4273 8.11262 10.6347 7.92292 10.7021C7.88368 10.7166 7.84225 10.7232 7.80155 10.7232Z" fill="black"/>
<path d="M6.71136 8.54747H5.25775C5.05715 8.54747 4.89435 8.38503 4.89435 8.18487C4.89435 7.98471 5.05715 7.82227 5.25775 7.82227H6.71136C6.91196 7.82227 7.07476 7.98471 7.07476 8.18487C7.07476 8.38503 6.91196 8.54747 6.71136 8.54747Z" fill="black"/>
<path d="M16.5232 8.54747H11.4356C11.235 8.54747 11.0722 8.38503 11.0722 8.18487C11.0722 7.98471 11.235 7.82227 11.4356 7.82227H16.5232C16.7238 7.82227 16.8866 7.98471 16.8866 8.18487C16.8866 8.38503 16.7238 8.54747 16.5232 8.54747Z" fill="black"/>
<path d="M13.616 8.54758C13.4154 8.54758 13.2526 8.38513 13.2526 8.18498V7.45977C13.2526 7.25961 13.4154 7.09717 13.616 7.09717C13.8166 7.09717 13.9794 7.25961 13.9794 7.45977V8.18498C13.9794 8.38513 13.8166 8.54758 13.616 8.54758Z" fill="black"/>
<path d="M12.5258 12.899C12.4117 12.899 12.2997 12.846 12.2292 12.7467C12.1129 12.5835 12.1515 12.3572 12.315 12.2412C13.906 11.1135 15.0696 8.81315 15.0696 8.18585C15.0696 7.98569 15.2324 7.82324 15.433 7.82324C15.6336 7.82324 15.7964 7.98569 15.7964 8.18585C15.7964 9.14167 14.3958 11.656 12.7365 12.833C12.6726 12.8772 12.5992 12.899 12.5258 12.899Z" fill="black"/>
<path d="M15.433 13.624C15.3451 13.624 15.2571 13.5929 15.1881 13.529C14.9242 13.2883 12.6021 11.1482 12.1893 10.1343C12.1137 9.9487 12.2038 9.73766 12.3891 9.66224C12.573 9.58754 12.7867 9.67602 12.8623 9.86167C13.1596 10.592 14.9962 12.3702 15.6787 12.9938C15.8269 13.1294 15.8364 13.3579 15.7012 13.5066C15.6292 13.5842 15.5311 13.624 15.433 13.624Z" fill="black"/>
</g>
<defs>
<clipPath id="clip0_75_577">
<rect width="17.4433" height="17.4049" fill="white" transform="translate(0.896912 0.570312)"/>
</clipPath>
</defs>
</svg>
