<svg width="152" height="152" viewBox="0 0 152 152" fill="none" xmlns="http://www.w3.org/2000/svg">
<path d="M76.0001 139.333C74.5223 139.333 73.2556 138.911 72.2001 138.067C71.1445 137.222 70.3529 136.114 69.8251 134.741C67.8195 128.83 65.2862 123.289 62.2251 118.116C59.2695 112.944 55.1001 106.875 49.7167 99.9082C44.3334 92.9415 39.9529 86.2915 36.5751 79.9582C33.3029 73.6248 31.6667 65.9721 31.6667 56.9998C31.6667 44.6498 35.9417 34.1998 44.4917 25.6498C53.1473 16.9943 63.6501 12.6665 76.0001 12.6665C88.3501 12.6665 98.8001 16.9943 107.35 25.6498C116.006 34.1998 120.333 44.6498 120.333 56.9998C120.333 66.6054 118.486 74.6276 114.792 81.0665C111.203 87.3998 107.033 93.6804 102.283 99.9082C96.5834 107.508 92.2556 113.841 89.3001 118.908C86.4501 123.869 84.0751 129.147 82.1751 134.741C81.6473 136.219 80.8029 137.38 79.6418 138.225C78.5862 138.964 77.3723 139.333 76.0001 139.333ZM76.0001 72.8332C80.4334 72.8332 84.1806 71.3026 87.2417 68.2415C90.3029 65.1804 91.8334 61.4332 91.8334 56.9998C91.8334 52.5665 90.3029 48.8193 87.2417 45.7582C84.1806 42.6971 80.4334 41.1665 76.0001 41.1665C71.5667 41.1665 67.8195 42.6971 64.7584 45.7582C61.6973 48.8193 60.1667 52.5665 60.1667 56.9998C60.1667 61.4332 61.6973 65.1804 64.7584 68.2415C67.8195 71.3026 71.5667 72.8332 76.0001 72.8332Z" fill="#FF0004"/>
</svg>
