<svg width="25" height="25" viewBox="0 0 25 25" fill="none" xmlns="http://www.w3.org/2000/svg">
<path d="M12.4999 22.9168C12.2569 22.9168 12.0485 22.8474 11.8749 22.7085C11.7013 22.5696 11.5711 22.3873 11.4843 22.1616C11.1544 21.1894 10.7378 20.2779 10.2343 19.4272C9.74818 18.5766 9.06242 17.5783 8.177 16.4325C7.29159 15.2866 6.5711 14.1929 6.01554 13.1512C5.47735 12.1095 5.20825 10.8509 5.20825 9.37516C5.20825 7.34391 5.91138 5.62516 7.31763 4.21891C8.74124 2.7953 10.4687 2.0835 12.4999 2.0835C14.5312 2.0835 16.2499 2.7953 17.6562 4.21891C19.0798 5.62516 19.7916 7.34391 19.7916 9.37516C19.7916 10.955 19.4878 12.2745 18.8801 13.3335C18.2898 14.3752 17.6041 15.4081 16.8228 16.4325C15.8853 17.6825 15.1735 18.7241 14.6874 19.5575C14.2187 20.3734 13.828 21.2415 13.5155 22.1616C13.4287 22.4047 13.2898 22.5957 13.0989 22.7345C12.9253 22.8561 12.7256 22.9168 12.4999 22.9168ZM12.4999 11.9793C13.2291 11.9793 13.8454 11.7276 14.3489 11.2241C14.8523 10.7206 15.1041 10.1043 15.1041 9.37516C15.1041 8.646 14.8523 8.02968 14.3489 7.5262C13.8454 7.02273 13.2291 6.771 12.4999 6.771C11.7708 6.771 11.1544 7.02273 10.651 7.5262C10.1475 8.02968 9.89575 8.646 9.89575 9.37516C9.89575 10.1043 10.1475 10.7206 10.651 11.2241C11.1544 11.7276 11.7708 11.9793 12.4999 11.9793Z" fill="white" stroke="#9E9E9E"/>
</svg>
