<svg width="20" height="20" viewBox="0 0 20 20" fill="none" xmlns="http://www.w3.org/2000/svg">
<path d="M9.99984 18.3332C9.80539 18.3332 9.63873 18.2776 9.49984 18.1665C9.36095 18.0554 9.25678 17.9096 9.18734 17.729C8.92345 16.9512 8.59012 16.2221 8.18734 15.5415C7.79845 14.8609 7.24984 14.0623 6.5415 13.1457C5.83317 12.229 5.25678 11.354 4.81234 10.5207C4.38178 9.68734 4.1665 8.68039 4.1665 7.49984C4.1665 5.87484 4.729 4.49984 5.854 3.37484C6.99289 2.23595 8.37484 1.6665 9.99984 1.6665C11.6248 1.6665 12.9998 2.23595 14.1248 3.37484C15.2637 4.49984 15.8332 5.87484 15.8332 7.49984C15.8332 8.76373 15.5901 9.81928 15.104 10.6665C14.6318 11.4998 14.0832 12.3262 13.4582 13.1457C12.7082 14.1457 12.1387 14.979 11.7498 15.6457C11.3748 16.2984 11.0623 16.9929 10.8123 17.729C10.7429 17.9234 10.6318 18.0762 10.479 18.1873C10.3401 18.2846 10.1804 18.3332 9.99984 18.3332ZM9.99984 9.58317C10.5832 9.58317 11.0762 9.38178 11.479 8.979C11.8818 8.57623 12.0832 8.08317 12.0832 7.49984C12.0832 6.9165 11.8818 6.42345 11.479 6.02067C11.0762 5.61789 10.5832 5.4165 9.99984 5.4165C9.4165 5.4165 8.92345 5.61789 8.52067 6.02067C8.11789 6.42345 7.9165 6.9165 7.9165 7.49984C7.9165 8.08317 8.11789 8.57623 8.52067 8.979C8.92345 9.38178 9.4165 9.58317 9.99984 9.58317Z" fill="#BDDCFF" stroke="black"/>
</svg>
