<svg width="10" height="10" viewBox="0 0 10 10" fill="none" xmlns="http://www.w3.org/2000/svg">
<path d="M5.00016 9.16668C4.90294 9.16668 4.81961 9.1389 4.75016 9.08334C4.68072 9.02779 4.62864 8.95487 4.59391 8.86459C4.46197 8.4757 4.2953 8.11112 4.09391 7.77084C3.89947 7.43057 3.62516 7.03126 3.271 6.57293C2.91683 6.11459 2.62864 5.67709 2.40641 5.26043C2.19113 4.84376 2.0835 4.34029 2.0835 3.75001C2.0835 2.93751 2.36475 2.25001 2.92725 1.68751C3.49669 1.11807 4.18766 0.833344 5.00016 0.833344C5.81266 0.833344 6.50016 1.11807 7.06266 1.68751C7.63211 2.25001 7.91683 2.93751 7.91683 3.75001C7.91683 4.38195 7.7953 4.90973 7.55225 5.33334C7.31614 5.75001 7.04183 6.1632 6.72933 6.57293C6.35433 7.07293 6.06961 7.48959 5.87516 7.82293C5.68766 8.14932 5.53141 8.49654 5.40641 8.86459C5.37169 8.96182 5.31614 9.03821 5.23975 9.09376C5.1703 9.14237 5.09044 9.16668 5.00016 9.16668ZM5.00016 4.79168C5.29183 4.79168 5.53836 4.69098 5.73975 4.48959C5.94113 4.2882 6.04183 4.04168 6.04183 3.75001C6.04183 3.45834 5.94113 3.21182 5.73975 3.01043C5.53836 2.80904 5.29183 2.70834 5.00016 2.70834C4.7085 2.70834 4.46197 2.80904 4.26058 3.01043C4.05919 3.21182 3.9585 3.45834 3.9585 3.75001C3.9585 4.04168 4.05919 4.2882 4.26058 4.48959C4.46197 4.69098 4.7085 4.79168 5.00016 4.79168Z" fill="#615D5D"/>
</svg>
