<svg width="10" height="10" viewBox="0 0 10 10" fill="none" xmlns="http://www.w3.org/2000/svg">
<g clip-path="url(#clip0_107_347)">
<path d="M9.1666 7.04999V8.29999C9.16707 8.41603 9.1433 8.53089 9.09681 8.63722C9.05032 8.74354 8.98214 8.83898 8.89663 8.91743C8.81112 8.99588 8.71017 9.05561 8.60024 9.09278C8.49032 9.12996 8.37384 9.14377 8.25826 9.13332C6.97611 8.99401 5.74451 8.55588 4.66243 7.85416C3.65569 7.21443 2.80215 6.36089 2.16243 5.35416C1.45826 4.26716 1.02003 3.02957 0.883265 1.74166C0.872852 1.62643 0.886546 1.51031 0.923473 1.40067C0.960401 1.29103 1.01975 1.19028 1.09775 1.10483C1.17575 1.01939 1.27068 0.951118 1.37651 0.904374C1.48234 0.857629 1.59674 0.833432 1.71243 0.833323H2.96243C3.16464 0.831333 3.36068 0.902939 3.514 1.03479C3.66732 1.16665 3.76746 1.34976 3.79576 1.54999C3.84852 1.95002 3.94637 2.34279 4.08743 2.72082C4.14349 2.86996 4.15562 3.03204 4.12239 3.18786C4.08916 3.34368 4.01196 3.4867 3.89993 3.59999L3.37076 4.12916C3.96391 5.1723 4.82762 6.03601 5.87076 6.62916L6.39993 6.09999C6.51322 5.98796 6.65625 5.91076 6.81206 5.87753C6.96788 5.8443 7.12996 5.85643 7.2791 5.91249C7.65713 6.05355 8.0499 6.1514 8.44993 6.20416C8.65233 6.23271 8.83718 6.33466 8.96932 6.49061C9.10146 6.64657 9.17167 6.84565 9.1666 7.04999Z" stroke="#615D5D" stroke-linecap="round" stroke-linejoin="round"/>
</g>
<defs>
<clipPath id="clip0_107_347">
<rect width="10" height="10" fill="white"/>
</clipPath>
</defs>
</svg>
