<svg width="72" height="72" viewBox="0 0 72 72" fill="none" xmlns="http://www.w3.org/2000/svg">
<path d="M66 50.76V59.76C66.0034 60.5955 65.8323 61.4225 65.4976 62.188C65.1629 62.9536 64.6719 63.6408 64.0563 64.2056C63.4406 64.7704 62.7138 65.2005 61.9223 65.4681C61.1308 65.7358 60.2922 65.8352 59.46 65.76C50.2285 64.7569 41.361 61.6024 33.57 56.55C26.3215 51.944 20.1761 45.7985 15.57 38.55C10.5 30.7236 7.34477 21.813 6.36004 12.54C6.28507 11.7104 6.38367 10.8743 6.64954 10.0849C6.91542 9.29547 7.34276 8.57007 7.90434 7.95486C8.46593 7.33966 9.14946 6.84813 9.91142 6.51157C10.6734 6.175 11.4971 6.00079 12.33 6H21.33C22.786 5.98567 24.1974 6.50124 25.3013 7.4506C26.4052 8.39996 27.1263 9.71834 27.33 11.16C27.7099 14.0402 28.4144 16.8682 29.43 19.59C29.8337 20.6638 29.921 21.8307 29.6818 22.9526C29.4425 24.0745 28.8866 25.1043 28.08 25.92L24.27 29.73C28.5407 37.2406 34.7594 43.4593 42.27 47.73L46.08 43.92C46.8957 43.1134 47.9255 42.5575 49.0474 42.3183C50.1693 42.079 51.3363 42.1664 52.41 42.57C55.1319 43.5857 57.9598 44.2901 60.84 44.67C62.2973 44.8756 63.6283 45.6096 64.5796 46.7325C65.531 47.8554 66.0365 49.2887 66 50.76Z" fill="white" stroke="#001AFF" stroke-width="2" stroke-linecap="round" stroke-linejoin="round"/>
</svg>
