<svg width="11" height="11" viewBox="0 0 11 11" fill="none" xmlns="http://www.w3.org/2000/svg">
<path fill-rule="evenodd" clip-rule="evenodd" d="M0.0374945 10.1C-0.143694 10.6302 0.362339 11.1385 0.899342 10.9656L8.58008 8.49343C8.70024 8.45475 8.76604 8.32681 8.72703 8.20766C8.68802 8.08852 8.55899 8.02328 8.43882 8.06196L0.758083 10.5341C0.579083 10.5918 0.410405 10.4224 0.470801 10.2456L3.2579 2.09C3.31231 1.93077 3.51641 1.88352 3.6363 2.0024L9.26235 7.58077C9.53035 7.8465 9.96486 7.8465 10.2329 7.58077L10.799 7.01944C11.067 6.75371 11.067 6.32287 10.799 6.05714L4.83112 0.139834C4.64308 -0.0466114 4.33821 -0.0466114 4.15017 0.139834L3.52013 0.764537C3.43079 0.853113 3.43079 0.996725 3.52013 1.0853C3.60946 1.17388 3.7543 1.17388 3.84363 1.0853L4.47367 0.460598C4.48305 0.451306 4.49824 0.451306 4.50761 0.460598L10.4755 6.37791C10.5648 6.46648 10.5648 6.6101 10.4755 6.69867L9.90936 7.26001C9.82003 7.34859 9.67519 7.34859 9.58585 7.26001L3.95981 1.68164C3.60012 1.325 2.98783 1.46674 2.82459 1.94442L0.0374945 10.1ZM2.71136 7.66096C2.89003 7.48381 3.17971 7.48381 3.35837 7.66096C3.53704 7.83812 3.53704 8.12534 3.35837 8.30249C3.17971 8.47964 2.89003 8.47964 2.71136 8.30249C2.5327 8.12534 2.5327 7.83812 2.71136 7.66096ZM5.62291 6.69867C5.80158 6.52152 6.09126 6.52152 6.26992 6.69867C6.44859 6.87582 6.44859 7.16305 6.26992 7.3402C6.09126 7.51735 5.80158 7.51735 5.62291 7.3402C5.44425 7.16305 5.44425 6.87582 5.62291 6.69867ZM3.68188 4.77409C3.86055 4.59693 4.15022 4.59693 4.32889 4.77409C4.50756 4.95124 4.50756 5.23846 4.32889 5.41562C4.15022 5.59277 3.86055 5.59277 3.68188 5.41562C3.50321 5.23846 3.50321 4.95124 3.68188 4.77409ZM3.35838 4.45332C3.71571 4.09902 4.29506 4.09902 4.6524 4.45332C5.00973 4.80763 5.00973 5.38207 4.6524 5.73638C4.29506 6.09069 3.71571 6.09069 3.35838 5.73638C3.00104 5.38207 3.00104 4.80763 3.35838 4.45332ZM6.59343 6.37791C6.2361 6.0236 5.65674 6.0236 5.29941 6.37791C4.94207 6.73221 4.94207 7.30666 5.29941 7.66096C5.65674 8.01527 6.2361 8.01527 6.59343 7.66096C6.95076 7.30666 6.95076 6.73221 6.59343 6.37791ZM3.68188 7.3402C3.32455 6.98589 2.74519 6.98589 2.38786 7.3402C2.03052 7.69451 2.03052 8.26895 2.38786 8.62325C2.74519 8.97756 3.32455 8.97756 3.68188 8.62325C4.03921 8.26895 4.03921 7.69451 3.68188 7.3402Z" fill="#615D5D"/>
</svg>
