<svg width="8" height="12" viewBox="0 0 8 12" fill="none" xmlns="http://www.w3.org/2000/svg">
<path fill-rule="evenodd" clip-rule="evenodd" d="M5 7.38462C5 7.76697 4.66421 8.07692 4.25 8.07692C3.83579 8.07692 3.5 7.76697 3.5 7.38462C3.5 7.00226 3.83579 6.69231 4.25 6.69231C4.66421 6.69231 5 7.00226 5 7.38462ZM4.5 7.38462C4.5 7.51207 4.38807 7.61538 4.25 7.61538C4.11193 7.61538 4 7.51207 4 7.38462C4 7.25717 4.11193 7.15385 4.25 7.15385C4.38807 7.15385 4.5 7.25717 4.5 7.38462Z" fill="#615D5D"/>
<path fill-rule="evenodd" clip-rule="evenodd" d="M3.25 8.76923C3.25 9.15158 2.91421 9.46154 2.5 9.46154C2.08579 9.46154 1.75 9.15158 1.75 8.76923C1.75 8.38688 2.08579 8.07692 2.5 8.07692C2.91421 8.07692 3.25 8.38688 3.25 8.76923ZM2.75 8.76923C2.75 8.89668 2.63807 9 2.5 9C2.36193 9 2.25 8.89668 2.25 8.76923C2.25 8.64178 2.36193 8.53846 2.5 8.53846C2.63807 8.53846 2.75 8.64178 2.75 8.76923Z" fill="#615D5D"/>
<path fill-rule="evenodd" clip-rule="evenodd" d="M4.25 10.8462C4.66421 10.8462 5 10.5362 5 10.1538C5 9.7715 4.66421 9.46154 4.25 9.46154C3.83579 9.46154 3.5 9.7715 3.5 10.1538C3.5 10.5362 3.83579 10.8462 4.25 10.8462ZM4.5 10.1538C4.5 10.2813 4.38807 10.3846 4.25 10.3846C4.11193 10.3846 4 10.2813 4 10.1538C4 10.0264 4.11193 9.92308 4.25 9.92308C4.38807 9.92308 4.5 10.0264 4.5 10.1538Z" fill="#615D5D"/>
<path fill-rule="evenodd" clip-rule="evenodd" d="M6.75 8.76923C6.75 9.15158 6.41421 9.46154 6 9.46154C5.58579 9.46154 5.25 9.15158 5.25 8.76923C5.25 8.38688 5.58579 8.07692 6 8.07692C6.41421 8.07692 6.75 8.38688 6.75 8.76923ZM6.25 8.76923C6.25 8.89668 6.13807 9 6 9C5.86193 9 5.75 8.89668 5.75 8.76923C5.75 8.64178 5.86193 8.53846 6 8.53846C6.13807 8.53846 6.25 8.64178 6.25 8.76923Z" fill="#615D5D"/>
<path fill-rule="evenodd" clip-rule="evenodd" d="M0.75 0C0.611929 0 0.5 0.103319 0.5 0.230769C0.5 0.35822 0.611929 0.461538 0.75 0.461538H2.75C3.16421 0.461538 3.5 0.771495 3.5 1.15385V2.76923H0.75C0.335786 2.76923 0 3.07919 0 3.46154V3.92308C0 4.22689 0.212011 4.485 0.506917 4.57821L0.753111 11.331C0.766713 11.7041 1.09829 12 1.50269 12H6.99731C7.40171 12 7.73329 11.7041 7.74689 11.331L8 4.3885V3.46154C8 3.07919 7.66421 2.76923 7.25 2.76923H4V1.15385C4 0.516595 3.44036 0 2.75 0H0.75ZM0.75 3.23077H7.25C7.38807 3.23077 7.5 3.33409 7.5 3.46154L7.5 4.38074L7.46897 5.23177C7.39417 5.21788 7.30997 5.20464 7.21851 5.19409C6.86246 5.15301 6.37785 5.1504 5.90715 5.3242C5.13342 5.60988 4.36658 5.60988 3.59285 5.3242C2.82003 5.03885 1.85479 5.00046 1.0302 5.20904L1.00855 4.61538H6C6.13807 4.61538 6.25 4.51207 6.25 4.38462C6.25 4.25717 6.13807 4.15385 6 4.15385H0.75C0.611929 4.15385 0.5 4.05053 0.5 3.92308V3.46154C0.5 3.33409 0.611929 3.23077 0.75 3.23077ZM7.15649 5.65206C7.27015 5.66518 7.37065 5.68315 7.45188 5.70052L7.24717 11.3155C7.24264 11.4398 7.13211 11.5385 6.99731 11.5385H1.50269C1.36789 11.5385 1.25736 11.4398 1.25283 11.3155L1.04756 5.68535C1.78968 5.46915 2.69997 5.49161 3.40715 5.75273C4.30009 6.08242 5.19991 6.08242 6.09285 5.75273C6.45548 5.61883 6.84587 5.61622 7.15649 5.65206Z" fill="#615D5D"/>
</svg>
